<?xml version="1.0" encoding="utf-8"?>
<!-- Generator: Adobe Illustrator 17.1.0, SVG Export Plug-In . SVG Version: 6.00 Build 0)  -->
<!DOCTYPE svg PUBLIC "-//W3C//DTD SVG 1.1//EN" "http://www.w3.org/Graphics/SVG/1.1/DTD/svg11.dtd">
<svg version="1.1" id="Calque_1" xmlns="http://www.w3.org/2000/svg" xmlns:xlink="http://www.w3.org/1999/xlink" x="0px" y="0px"
	 viewBox="0 0 958 393.3" enable-background="new 0 0 958 393.3" xml:space="preserve">
<g>
	<g>
		<path fill="#5E5E5E" d="M661.8,0c-52.7,0-89.4,20.1-118.2,44.7L556.1,56c26.4-22.1,59-39.2,105.7-39.2c66.7,0,121,47.6,121,106.2
			c0,58.5-54.3,106.2-121,106.2c-45.7,0-79-17.2-105.6-39.1l-12.6,11.3c29.1,24.4,66.5,44.6,118.2,44.6
			c75.9,0,137.7-55.2,137.7-122.9C799.5,55.2,737.7,0,661.8,0z M514.3,98.3c7.2-8,14.7-16.3,22.6-24.4l-12.5-11.2
			c-8,8.2-15.4,16.4-22.5,24.3c-8,8.9-15.6,17.3-23.1,24.6c-8.6-8.2-16.9-17.4-25.6-27.1c-6.4-7.1-13-14.4-19.9-21.6l-12.4,11.2
			c6.9,7.1,13.4,14.4,20,21.7c8.7,9.7,17,18.9,25.7,27.3c-7.4,7.3-14.8,15.6-22.6,24.2c-7.3,8.2-14.8,16.5-22.8,24.7l12.5,11.2
			c8.1-8.3,15.6-16.6,22.8-24.6c7.8-8.7,15.2-17,22.5-24c6.5,6.4,13.3,14,20.5,22c7.6,8.5,15.8,17.7,24.9,26.8l12.5-11.2
			c-9-9-17.2-18.2-25-26.9c-7.1-7.9-13.9-15.5-20.6-22.2C498.8,115.6,506.4,107.2,514.3,98.3z M296.2,229.1
			c-66.7,0-121-47.6-121-106.2c0-58.5,54.3-106.2,121-106.2c47.6,0,79.5,16.8,105.6,39.2l12.5-11.3C385.9,19.8,350,0,296.2,0
			c-75.9,0-137.7,55.2-137.7,122.9c0,67.8,61.8,122.9,137.7,122.9c52.7,0,89.4-20,118.2-44.7L401.8,190
			C375.5,212.1,342.8,229.1,296.2,229.1z"/>
	</g>
</g>
<g>
	<path fill="#5E5E5E" d="M0,392v-4.9l39.4-55.4H0v-5.1h46.5v4.8L7.1,386.9h40.1v5.1H0z"/>
	<path fill="#5E5E5E" d="M94,392v-65.4h41.5v5.1H99.6v24.2h35.2v5.1H99.6v25.9h35.9v5.1H94z"/>
	<path fill="#5E5E5E" d="M229.8,392l-41.2-56.2V392h-5.6v-65.4h5.7l41,55.4v-55.4h5.6V392H229.8z"/>
	<path fill="#5E5E5E" d="M282.9,359.4c0-20.2,14.8-33.8,33.1-33.8c10.8,0,18.6,4.3,24.6,11.2l-4.2,3c-4.6-5.5-12.1-9.1-20.4-9.1
		c-15.4,0-27.2,11.7-27.2,28.7c0,16.9,11.9,28.8,27.2,28.8c8.7,0,15.6-4.3,19.2-7.9v-15.7h-24.7v-5h30.3v22.8
		c-5.8,6.5-14.5,10.9-24.8,10.9C297.7,393.3,282.9,379.5,282.9,359.4z"/>
	<path fill="#5E5E5E" d="M388.9,366.9v-40.3h5.7v40.2c0,13.2,7,21.3,19.8,21.3c12.9,0,19.8-8,19.8-21.3v-40.2h5.7v40.3
		c0,16.2-8.6,26.3-25.5,26.3C397.6,393.2,388.9,383,388.9,366.9z"/>
	<path fill="#5E5E5E" d="M489.9,392v-65.4h5.6v60.3h31.7v5.1H489.9z"/>
	<path fill="#5E5E5E" d="M620.4,392l-6.5-16.1h-34.6l-6.5,16.1h-6.5l26.8-65.4h7l26.8,65.4H620.4z M596.6,332.6l-15.4,38.2h30.9
		L596.6,332.6z"/>
	<path fill="#5E5E5E" d="M708.6,392l-18.3-27h-14.4v27h-5.6v-65.4h24.4c11.3,0,19.9,7.2,19.9,19.1c0,11.9-8.4,18.4-18.1,18.8
		l18.9,27.4H708.6z M708.7,345.7c0-8.2-5.9-14-14.5-14h-18.3v28.1h18.3C702.9,359.8,708.7,354,708.7,345.7z"/>
	<path fill="#5E5E5E" d="M762.3,392v-65.4h5.6V392H762.3z"/>
	<path fill="#5E5E5E" d="M834.7,392v-60.3h-21.4v-5.1h48.4v5.1h-21.4V392H834.7z"/>
	<path fill="#5E5E5E" d="M926.4,392v-27.9l-26-37.4h6.8l22.1,32.1l22.1-32.1h6.8l-26,37.4V392H926.4z"/>
</g>
</svg>
